<svg width="48" height="48" viewBox="0 0 48 48" fill="none" xmlns="http://www.w3.org/2000/svg">
<path d="M28.5 10C28.5 5.85786 31.8578 2.5 36 2.5C40.1422 2.5 43.5 5.85786 43.5 10C43.5 14.1421 40.1422 17.5 36 17.5C31.8578 17.5 28.5 14.1421 28.5 10Z" fill="black"/>
<path d="M4.5 38C4.5 33.8578 7.85786 30.5 12 30.5C16.1421 30.5 19.5 33.8578 19.5 38C19.5 42.1422 16.1421 45.5 12 45.5C7.85786 45.5 4.5 42.1422 4.5 38Z" fill="black"/>
<path fill-rule="evenodd" clip-rule="evenodd" d="M8 17C8 12.0294 12.0294 8 17 8H24C25.1046 8 26 8.89544 26 10C26 11.1046 25.1046 12 24 12H17C14.2386 12 12 14.2386 12 17C12 19.7614 14.2386 22 17 22H31C35.9706 22 40 26.0294 40 31C40 35.9706 35.9706 40 31 40H24C22.8954 40 22 39.1046 22 38C22 36.8954 22.8954 36 24 36H31C33.7614 36 36 33.7614 36 31C36 28.2386 33.7614 26 31 26H17C12.0294 26 8 21.9706 8 17Z" fill="black"/>
</svg>
