<svg width="116" height="35" viewBox="0 0 116 35" fill="none" xmlns="http://www.w3.org/2000/svg">
<path d="M9.81445 27C12.1094 27 13.999 26.2871 15.4834 24.8613V27H18.457V14.959H11.0889V17.9326H15.4102C15.2148 19.8857 14.6387 21.3896 13.6816 22.4443C12.7051 23.499 11.416 24.0264 9.81445 24.0264C8.00781 24.0264 6.61133 23.3672 5.625 22.0488C4.63867 20.7207 4.14551 18.8506 4.14551 16.4385C4.14551 14.0264 4.66309 12.1611 5.69824 10.8428C6.72363 9.51465 8.17871 8.85059 10.0635 8.85059C12.5537 8.85059 14.2773 9.95898 15.2344 12.1758L17.959 11.0039C17.2461 9.35352 16.2109 8.08887 14.8535 7.20996C13.4961 6.33105 11.8994 5.8916 10.0635 5.8916C7.31934 5.8916 5.15137 6.83398 3.55957 8.71875C1.96777 10.6133 1.17188 13.1865 1.17188 16.4385C1.17188 19.7002 1.94824 22.2734 3.50098 24.1582C5.04395 26.0527 7.14844 27 9.81445 27ZM24.6826 19.8076C24.6826 18.626 24.9219 17.6836 25.4004 16.9805C26.0254 16.0625 27.0361 15.6035 28.4326 15.6035V12.6299C27.9248 12.6299 27.4365 12.6738 26.9678 12.7617L26.8213 12.791C25.9912 12.9863 25.2783 13.333 24.6826 13.8311V12.6445H21.709V27H24.6826V19.8076ZM35.6396 24.0264C34.2334 24.0264 33.2178 23.5674 32.5928 22.6494C32.124 21.9365 31.8896 20.9893 31.8896 19.8076C31.8896 18.626 32.124 17.6787 32.5928 16.9658C33.2178 16.0479 34.2334 15.5889 35.6396 15.5889C37.0459 15.5889 38.0615 16.0479 38.6865 16.9658C39.165 17.6787 39.4043 18.626 39.4043 19.8076C39.4043 20.9893 39.165 21.9365 38.6865 22.6494C38.0615 23.5674 37.0459 24.0264 35.6396 24.0264ZM35.6396 12.6152C33.5986 12.6152 31.9678 13.2695 30.7471 14.5781C29.5264 15.877 28.916 17.6201 28.916 19.8076C28.916 21.9951 29.5264 23.7383 30.7471 25.0371C31.9678 26.3457 33.5986 27 35.6396 27C37.6807 27 39.3115 26.3457 40.5322 25.0371C41.7529 23.7383 42.3633 21.9951 42.3633 19.8076C42.3633 17.6201 41.7529 15.877 40.5322 14.5781C39.3115 13.2695 37.6807 12.6152 35.6396 12.6152ZM51.4307 27C52.8174 27 54.0381 26.6826 55.0928 26.0479C56.1377 25.4131 56.9238 24.5195 57.4512 23.3672L54.7559 22.1367C54.1797 23.3965 53.0713 24.0264 51.4307 24.0264C50.0342 24.0264 49.0186 23.5674 48.3838 22.6494C47.915 21.9365 47.6807 20.9893 47.6807 19.8076C47.6807 18.626 47.915 17.6787 48.3838 16.9658C49.0186 16.0479 50.0342 15.5889 51.4307 15.5889C53.0615 15.5889 54.165 16.209 54.7412 17.4492L57.4365 16.2041C56.9092 15.0615 56.1182 14.1777 55.0635 13.5527C54.0186 12.9277 52.8076 12.6152 51.4307 12.6152C49.3896 12.6152 47.7588 13.2695 46.5381 14.5781C45.3174 15.877 44.707 17.6201 44.707 19.8076C44.707 21.9951 45.3174 23.7383 46.5381 25.0371C47.7588 26.3457 49.3896 27 51.4307 27ZM59.7949 5.8916V27H62.7686V5.8916H59.7949ZM71.8506 24.0264C70.4443 24.0264 69.4287 23.5674 68.8037 22.6494C68.335 21.9365 68.1006 20.9893 68.1006 19.8076C68.1006 18.626 68.335 17.6787 68.8037 16.9658C69.4287 16.0479 70.4443 15.5889 71.8506 15.5889C73.2568 15.5889 74.2725 16.0479 74.8975 16.9658C75.376 17.6787 75.6152 18.626 75.6152 19.8076C75.6152 20.9893 75.376 21.9365 74.8975 22.6494C74.2725 23.5674 73.2568 24.0264 71.8506 24.0264ZM71.8506 12.6152C69.8096 12.6152 68.1787 13.2695 66.958 14.5781C65.7373 15.877 65.127 17.6201 65.127 19.8076C65.127 21.9951 65.7373 23.7383 66.958 25.0371C68.1787 26.3457 69.8096 27 71.8506 27C73.8916 27 75.5225 26.3457 76.7432 25.0371C77.9639 23.7383 78.5742 21.9951 78.5742 19.8076C78.5742 17.6201 77.9639 15.877 76.7432 14.5781C75.5225 13.2695 73.8916 12.6152 71.8506 12.6152ZM89.8535 13.2451C89.0234 12.8252 88.0957 12.6152 87.0703 12.6152C86.0449 12.6152 85.1172 12.8252 84.2871 13.2451C84.1504 13.3232 84.0186 13.4062 83.8916 13.4941V12.6299H80.918V27H83.8916V19.7051C83.9014 18.543 84.1113 17.6201 84.5215 16.9365C85.0488 16.0381 85.8984 15.5889 87.0703 15.5889C88.2617 15.5889 89.1211 16.0527 89.6484 16.9805C90.0488 17.6836 90.249 18.626 90.249 19.8076V27H93.2227V19.8076C93.2227 18.2451 92.9248 16.8926 92.3291 15.75C91.7432 14.6172 90.918 13.7822 89.8535 13.2451ZM98.7012 18.2842C99.1211 16.4873 100.317 15.5889 102.29 15.5889C104.263 15.5889 105.459 16.4873 105.879 18.2842H98.7012ZM109.014 19.8076V19.6758C109.014 19.1973 108.975 18.7334 108.896 18.2842C108.623 16.5264 107.9 15.1445 106.729 14.1387C105.557 13.123 104.077 12.6152 102.29 12.6152C100.249 12.6152 98.6182 13.2695 97.3975 14.5781C96.1768 15.877 95.5664 17.6201 95.5664 19.8076C95.5664 21.9951 96.1914 23.7383 97.4414 25.0371C98.6816 26.3457 100.347 27 102.437 27C103.882 27 105.166 26.6875 106.289 26.0625C107.412 25.4473 108.242 24.5879 108.779 23.4844L106.113 22.1807C105.83 22.7568 105.366 23.2109 104.722 23.543C104.067 23.8652 103.306 24.0264 102.437 24.0264C100.298 24.0264 99.0381 23.0498 98.6572 21.0967H109.014V19.8076ZM112.998 23.7334C112.539 23.7334 112.153 23.8945 111.841 24.2168C111.519 24.5293 111.357 24.9102 111.357 25.3594C111.357 25.8184 111.519 26.2041 111.841 26.5166C112.153 26.8389 112.539 27 112.998 27C113.447 27 113.828 26.8389 114.141 26.5166C114.463 26.2041 114.624 25.8184 114.624 25.3594C114.624 24.9102 114.463 24.5293 114.141 24.2168C113.828 23.8945 113.447 23.7334 112.998 23.7334Z" fill="black"/>
</svg>
