<svg width="48" height="48" viewBox="0 0 48 48" fill="none" xmlns="http://www.w3.org/2000/svg">
<path fill-rule="evenodd" clip-rule="evenodd" d="M21.1803 22.0568C17.4622 22.0568 14.448 25.0554 14.448 28.7544C14.448 30.6044 15.1994 32.2762 16.4198 33.4902C17.6403 34.7044 19.3207 35.452 21.1803 35.452C24.8985 35.452 27.9127 32.4534 27.9127 28.7544C27.9127 25.0554 24.8985 22.0568 21.1803 22.0568ZM10.5389 28.7544C10.5389 22.9076 15.3032 18.168 21.1803 18.168C27.0575 18.168 31.8217 22.9076 31.8217 28.7544C31.8217 34.6012 27.0575 39.3408 21.1803 39.3408C18.9488 39.3408 16.876 38.656 15.1653 37.4882L11.7038 40.9318C10.9405 41.6912 9.70296 41.6912 8.93966 40.9318C8.17636 40.1724 8.17636 38.9412 8.93966 38.182L12.4011 34.7384C11.2272 33.0364 10.5389 30.9744 10.5389 28.7544Z" fill="black"/>
<path fill-rule="evenodd" clip-rule="evenodd" d="M2.5 22.9544C2.5 13.8577 9.94748 6.5 19.1136 6.5H28.8864C38.0526 6.5 45.5 13.8577 45.5 22.9544C45.5 30.128 40.8678 36.2178 34.4212 38.4732C33.4028 38.8294 32.287 38.297 31.9288 37.284C31.5708 36.271 32.106 35.1608 33.1242 34.8046C38.0648 33.0762 41.591 28.4164 41.591 22.9544C41.591 16.0239 35.9122 10.3889 28.8864 10.3889H19.1136C12.0878 10.3889 6.4091 16.0239 6.4091 22.9544C6.4091 25.2406 7.02452 27.3788 8.0997 29.2224C8.64142 30.1514 8.32366 31.3412 7.38996 31.8802C6.45626 32.419 5.2602 32.103 4.71848 31.174C3.30726 28.7542 2.5 25.945 2.5 22.9544Z" fill="black"/>
</svg>
