<svg width="48" height="48" viewBox="0 0 48 48" fill="none" xmlns="http://www.w3.org/2000/svg">
<path fill-rule="evenodd" clip-rule="evenodd" d="M28.0832 2.52516C28.2436 2.52854 28.364 2.67246 28.3396 2.83106C28.1416 4.01938 28.0122 4.77934 27.8484 5.33736C27.6954 5.85904 27.5592 6.02768 27.453 6.12188C27.3362 6.22554 27.1544 6.33844 26.6258 6.41148C26.047 6.49148 25.257 6.49984 23.999 6.49984C22.7408 6.49984 21.9508 6.49148 21.372 6.41148C20.8436 6.33844 20.6616 6.22554 20.5448 6.12188C20.4386 6.02768 20.3026 5.85904 20.1494 5.33736C19.9859 4.78028 19.8566 4.02192 19.6591 2.83698C19.6356 2.67478 19.759 2.52844 19.9228 2.525C21.1176 2.49998 22.4362 2.49998 23.8874 2.5H24.1106C25.565 2.49998 26.8864 2.49998 28.0832 2.52516ZM16.1192 2.7701C16.3927 2.73334 16.6416 2.92696 16.6812 3.20006L16.6933 3.28346L16.6982 3.31492L16.7122 3.39922C16.893 4.48438 17.0503 5.42832 17.2717 6.18264C17.5099 6.99428 17.8671 7.7564 18.5547 8.36642C19.2658 8.99736 20.0848 9.26242 20.9622 9.38368C21.7894 9.498 22.8102 9.5003 23.9998 9.5003C25.1894 9.5003 26.2102 9.498 27.0374 9.38368C27.9146 9.26242 28.7338 8.99736 29.445 8.36642C30.1324 7.7564 30.4896 6.99428 30.7278 6.18264C30.9492 5.42832 31.1066 4.48438 31.2874 3.39922L31.3014 3.31494L31.3198 3.19576C31.3612 2.92472 31.609 2.73358 31.8808 2.7701C33.9534 3.04876 35.6602 3.63976 37.0104 4.99004C38.3606 6.34032 38.9518 8.04714 39.2304 10.1197C39.5 12.1259 39.5 14.6838 39.5 17.889V30.112C39.5 33.3172 39.5 35.875 39.2304 37.8812C38.9518 39.9538 38.3606 41.6606 37.0104 43.0108C35.6602 44.3612 33.9534 44.9522 31.8808 45.2308C29.8746 45.5006 27.3166 45.5004 24.1114 45.5004H23.8886C20.6834 45.5004 18.1254 45.5006 16.1192 45.2308C14.0467 44.9522 12.3399 44.3612 10.9896 43.0108C9.63932 41.6606 9.0483 39.9538 8.76966 37.8812C8.49994 35.875 8.49996 33.3172 8.5 30.112V17.8889C8.49996 14.6838 8.49994 12.1258 8.76966 10.1197C9.0483 8.04714 9.63932 6.34032 10.9896 4.99004C12.3399 3.63976 14.0467 3.04876 16.1192 2.7701ZM20.5 40C20.5 39.1716 21.1716 38.5 22 38.5H26C26.8284 38.5 27.5 39.1716 27.5 40C27.5 40.8284 26.8284 41.5 26 41.5H22C21.1716 41.5 20.5 40.8284 20.5 40Z" fill="black"/>
</svg>
