<svg width="41" height="30" viewBox="0 0 41 30" fill="none" xmlns="http://www.w3.org/2000/svg">
<path d="M30.9536 17.9721C31.3989 17.9721 31.8263 17.9042 32.2516 17.8423C32.1139 18.3056 31.9721 18.7769 31.7444 19.2003C31.5167 19.8154 31.1613 20.3486 30.8078 20.8858C30.5122 21.467 29.991 21.8604 29.6075 22.3576C29.2061 22.8409 28.6589 23.1625 28.2256 23.5639C27.8002 23.9832 27.243 24.1929 26.7997 24.4885C26.3364 24.7541 25.933 25.0477 25.5016 25.1875L24.4252 25.6308L23.4786 26.0242L24.4472 29.8945L25.6394 29.607C26.0208 29.5111 26.4861 29.3993 27.0154 29.2655C27.5566 29.1656 28.1337 28.892 28.7768 28.6424C29.4118 28.3588 30.1468 28.1671 30.8297 27.7117C31.5167 27.2764 32.3096 26.9129 33.0085 26.3298C33.6855 25.7287 34.5023 25.2074 35.1054 24.4426C35.7645 23.7276 36.4155 22.9767 36.9208 22.122C37.5059 21.3072 37.9033 20.4125 38.3227 19.5278C38.7021 18.6431 39.0077 17.7384 39.2573 16.8597C39.7306 15.0983 39.9423 13.4248 40.0242 11.9929C40.0921 10.559 40.0521 9.36679 39.9683 8.50406C39.9383 8.09666 39.8824 7.70124 39.8425 7.42765L39.7925 7.09214L39.7406 7.10412C39.3854 5.44491 38.5677 3.92016 37.3822 2.70625C36.1966 1.49233 34.6916 0.638868 33.0412 0.244583C31.3908 -0.149702 29.6626 -0.0686989 28.0563 0.478222C26.4501 1.02514 25.0315 2.01563 23.9647 3.33511C22.8978 4.65459 22.2263 6.24914 22.0279 7.93431C21.8294 9.61947 22.1121 11.3264 22.8433 12.8576C23.5744 14.3888 24.7241 15.6818 26.1593 16.5868C27.5946 17.4919 29.2568 17.9722 30.9536 17.9721ZM8.98595 17.9721C9.43129 17.9721 9.85866 17.9042 10.284 17.8423C10.1462 18.3056 10.0044 18.7769 9.77678 19.2003C9.54912 19.8154 9.19364 20.3486 8.84016 20.8858C8.5446 21.467 8.02337 21.8604 7.63993 22.3576C7.23853 22.8409 6.69133 23.1625 6.25797 23.5639C5.8326 23.9832 5.27542 24.1929 4.83207 24.4885C4.36876 24.7541 3.96535 25.0477 3.53399 25.1875L2.45758 25.6308L1.51097 26.0242L2.47954 29.8945L3.67179 29.607C4.05323 29.5111 4.51854 29.3993 5.04776 29.2655C5.58896 29.1656 6.16611 28.892 6.80916 28.6424C7.44223 28.3568 8.17914 28.1671 8.86213 27.7098C9.54912 27.2744 10.3419 26.9109 11.0409 26.3278C11.7179 25.7267 12.5347 25.2054 13.1378 24.4426C13.7969 23.7276 14.4479 22.9767 14.9532 22.122C15.5383 21.3072 15.9357 20.4125 16.3551 19.5278C16.7345 18.6431 17.0401 17.7384 17.2897 16.8597C17.763 15.0983 17.9747 13.4248 18.0566 11.9929C18.1245 10.559 18.0845 9.36679 18.0007 8.50406C17.9707 8.09666 17.9148 7.70124 17.8748 7.42765L17.8249 7.09214L17.773 7.10412C17.4178 5.44491 16.6001 3.92016 15.4145 2.70625C14.229 1.49233 12.724 0.638868 11.0736 0.244583C9.42323 -0.149702 7.69497 -0.0686989 6.08871 0.478222C4.48246 1.02514 3.06387 2.01563 1.99704 3.33511C0.930206 4.65459 0.25872 6.24914 0.0602722 7.93431C-0.138176 9.61947 0.144512 11.3264 0.875641 12.8576C1.60677 14.3888 2.75646 15.6818 4.19172 16.5868C5.62697 17.4919 7.28914 17.9722 8.98595 17.9721Z" fill="#EFC0A6"/>
</svg>
